<svg version="1.1" id="logo" height="36" width="160" xmlns="http://www.w3.org/2000/svg" xmlns:xlink="http://www.w3.org/1999/xlink" x="0px" y="0px" viewBox="0 0 160 36" style="enable-background:new 0 0 160 36;" xml:space="preserve">
	<g class="logo-word">
		<path style="fill:#fff" id="t" d="M50.6,10.6v2.1h2.5v1.3h-2.5v7.6c0,0.5,0.1,0.8,0.3,1c0.2,0.2,0.6,0.3,1,0.3c0.5,0,0.9-0.1,1.4-0.2v1.3c-0.5,0.1-1,0.2-1.5,0.2c-1.8,0-2.7-0.8-2.7-2.5v-7.7h-1.2v-1.3h1.3l0.4-2.1H50.6z"></path>
		<path style="fill:#fff" id="e" d="M55.8,21.2v-5.6c0-0.9,0.3-1.7,0.8-2.3c0.5-0.6,1.4-0.9,2.5-0.9c1.1,0,1.9,0.3,2.4,0.9c0.5,0.6,0.8,1.3,0.8,2.3v3.5h-5.1v2c0,0.6,0.2,1,0.6,1.3c0.4,0.3,1,0.4,1.7,0.4c0.8,0,1.6-0.1,2.4-0.4v1.3c-0.7,0.2-1.5,0.3-2.4,0.3C57.1,24.2,55.8,23.2,55.8,21.2z M57.2,17.9H61v-2.3c0-1.3-0.6-1.9-1.9-1.9c-1.2,0-1.9,0.6-1.9,1.9V17.9z"></path>
		<path style="fill:#fff" id="c" d="M65.6,15.4c0-1.9,1.1-2.9,3.4-2.9c0.8,0,1.5,0.1,2.1,0.3v1.3c-0.6-0.2-1.3-0.3-2.1-0.3c-0.7,0-1.3,0.1-1.6,0.4c-0.3,0.3-0.4,0.7-0.4,1.2v5.8c0,0.6,0.1,1,0.4,1.2c0.3,0.3,0.8,0.4,1.6,0.4c0.8,0,1.5-0.1,2.1-0.3v1.3c-0.7,0.2-1.4,0.3-2.2,0.3c-2.2,0-3.4-0.9-3.4-2.8V15.4z"></path>
		<path style="fill:#fff" id="h" d="M74.2,9.6h1.4v3.5c0.8-0.3,1.6-0.5,2.3-0.5s1.4,0.2,1.9,0.7c0.5,0.5,0.7,1.1,0.7,2v8.8h-1.4v-8.7c0-1-0.5-1.5-1.5-1.5c-0.7,0-1.4,0.2-2.1,0.5v9.6h-1.4V9.6z"></path>
		<path style="fill:#fff" id="n" d="M85.6,13.2c0.9-0.4,1.7-0.6,2.5-0.6c0.7,0,1.4,0.2,1.8,0.7c0.5,0.5,0.7,1.1,0.7,2v8.8h-1.4v-8.7c0-1-0.5-1.5-1.5-1.5c-0.6,0-1.3,0.2-2,0.5v9.6h-1.4V12.7h1.4V13.2z"></path>
		<path style="fill:#fff" id="o" d="M94.1,15.6c0-0.9,0.3-1.7,0.8-2.3c0.5-0.6,1.3-0.8,2.4-0.8s1.9,0.3,2.4,0.8c0.5,0.6,0.8,1.3,0.8,2.3v5.6c0,0.9-0.3,1.7-0.8,2.3c-0.5,0.6-1.4,0.8-2.4,0.8s-1.9-0.3-2.4-0.8c-0.5-0.6-0.8-1.3-0.8-2.3V15.6z M99.2,15.6c0-1.2-0.6-1.9-1.8-1.9s-1.8,0.6-1.8,1.9v5.6c0,1.3,0.6,1.9,1.8,1.9s1.8-0.6,1.8-1.9V15.6z"></path>
		<path style="fill:#fff" id="b" d="M104.1,9.6h1.4v3.5c0.8-0.3,1.6-0.5,2.4-0.5c0.8,0,1.4,0.2,1.9,0.7s0.7,1.1,0.7,2v5.8c0,0.9-0.3,1.7-0.8,2.2c-0.5,0.5-1.3,0.8-2.2,0.8h-3.4V9.6z M109.1,15.4c0-1-0.5-1.5-1.5-1.5c-0.5,0-1.2,0.2-2.1,0.5v8.3h1.7c1.3,0,1.9-0.6,1.9-1.8V15.4z"></path>
		<path style="fill:#fff" id="u" d="M117,22.8c0.7,0,1.3-0.2,1.9-0.6v-9.6h1.4v11.4H119v-0.5c-0.8,0.4-1.6,0.6-2.4,0.6s-1.5-0.2-1.9-0.7c-0.5-0.5-0.7-1.2-0.7-2.1v-8.6h1.4v8.5C115.4,22.3,116,22.8,117,22.8z"></path>
		<path style="fill:#fff" id="f" d="M124.6,12c0-0.9,0.2-1.5,0.7-2c0.5-0.5,1.2-0.7,2.1-0.7c0.3,0,0.6,0,0.9,0.1v1.2c-0.2-0.1-0.5-0.1-0.8-0.1c-1,0-1.4,0.5-1.4,1.5v0.7h2.1v1.2H126v10.2h-1.4V13.9h-1.1v-1.2h1.1V12z"></path>
		<path style="fill:#fff" id="f2" d="M131.1,12c0-0.9,0.2-1.5,0.7-2c0.5-0.5,1.2-0.7,2.1-0.7c0.3,0,0.6,0,0.9,0.1v1.2c-0.2-0.1-0.5-0.1-0.8-0.1c-1,0-1.4,0.5-1.4,1.5v0.7h2.1v1.2h-2.1v10.2h-1.4V13.9h-1.1v-1.2h1.1V12z"></path>
		<path style="fill:#fff" id="a" d="M139.6,12.6c2.3,0,3.4,1,3.4,2.9v8.6h-1.4v-0.8c-0.7,0.6-1.5,0.9-2.4,0.9c-1.9,0-2.8-0.9-2.8-2.7v-0.6c0-1.4,0.8-2.3,2.4-2.8l2.8-0.8v-1.7c0-0.5-0.2-0.9-0.5-1.2s-0.9-0.4-1.8-0.4c-0.9,0-1.7,0.1-2.5,0.4v-1.3C137.7,12.7,138.6,12.6,139.6,12.6z M137.8,20.8v0.6c0,0.5,0.1,0.9,0.4,1.2s0.7,0.4,1.4,0.4c0.7,0,1.4-0.3,2-0.8v-3.7l-2.3,0.6c-0.6,0.2-1,0.4-1.2,0.6S137.8,20.3,137.8,20.8z"></path>
		<path style="fill:#fff" id="l" d="M146.6,9.6h1.4v14.4h-1.4V9.6z"></path>
		<path style="fill:#fff" id="o2" d="M151.6,15.6c0-0.9,0.3-1.7,0.8-2.3c0.5-0.6,1.3-0.8,2.4-0.8c1.1,0,1.9,0.3,2.4,0.8c0.5,0.6,0.8,1.3,0.8,2.3v5.6c0,0.9-0.3,1.7-0.8,2.3c-0.5,0.6-1.4,0.8-2.4,0.8c-1.1,0-1.9-0.3-2.4-0.8c-0.5-0.6-0.8-1.3-0.8-2.3V15.6z M156.7,15.6c0-1.2-0.6-1.9-1.8-1.9s-1.8,0.6-1.8,1.9v5.6c0,1.3,0.6,1.9,1.8,1.9s1.8-0.6,1.8-1.9V15.6z"></path>
	</g>
	<circle style="fill:#fff" class="logo-circle" cx="18" cy="18" r="18"></circle>
	<path class="logo-curvefront" style="fill:#28a0ff" d="M23.4,11.9L23.4,11.9l-7.3,4.8l0,0c4,0,7.3,3.3,7.3,7.3c0,0.9-0.2,1.7-0.4,2.5c-0.5,1.5-1.5,2.7-2.8,3.6l7.7-5.1c1.7-1.3,2.9-3.4,2.9-5.8C30.7,15.2,27.4,11.9,23.4,11.9z"></path>
	<path class="logo-curveback" d="M16.1,19.2V2.5v0l0,0L8.8,7.3l0,0l0,0v0v16.7c0,4,3.3,7.3,7.3,7.3c0.6,0,1.2-0.1,1.8-0.2c0.8-0.2,1.5-0.5,2.1-0.9l0.1-0.1c1.3-0.9,2.3-2.1,2.8-3.6C19.1,26.3,16.1,23.1,16.1,19.2z"></path>
</svg>