<svg version="1.1" id="logo" height="36" width="160" xmlns="http://www.w3.org/2000/svg" xmlns:xlink="http://www.w3.org/1999/xlink" x="0px" y="0px" viewBox="0 0 160 36" style="enable-background:new 0 0 160 36;" xml:space="preserve">
	<g class="logo-word">
		<path d="M50.6,10.6v2.1h2.5V14h-2.5v7.6c0,0.5,0.1,0.8,0.3,1c0.2,0.2,0.6,0.3,1,0.3c0.5,0,0.9-0.1,1.4-0.2V24c-0.5,0.1-1,0.2-1.5,0.2c-1.8,0-2.7-0.8-2.7-2.5V14h-1.2v-1.3h1.3l0.4-2.1H50.6z"></path>
		<path d="M56,9.7h1.4v3.5c0.8-0.3,1.6-0.5,2.3-0.5c0.8,0,1.4,0.2,1.9,0.7s0.7,1.1,0.7,2v8.8h-1.4v-8.7c0-1-0.5-1.5-1.5-1.5c-0.7,0-1.4,0.2-2.1,0.5v9.6H56V9.7z"></path>
		<path d="M65.8,21.2v-5.6c0-0.9,0.3-1.7,0.8-2.3c0.5-0.6,1.4-0.9,2.5-0.9c1.1,0,1.9,0.3,2.4,0.9c0.5,0.6,0.8,1.3,0.8,2.3v3.5h-5.1v2c0,0.6,0.2,1,0.6,1.3c0.4,0.3,1,0.4,1.7,0.4s1.6-0.1,2.4-0.4v1.3c-0.7,0.2-1.5,0.3-2.4,0.3C67.1,24.2,65.8,23.2,65.8,21.2z M67.2,17.9h3.7v-2.3c0-1.3-0.6-1.9-1.9-1.9s-1.9,0.6-1.9,1.9V17.9z"></path>
		<path d="M81.9,13.2c0.9-0.4,1.7-0.6,2.5-0.6c0.7,0,1.4,0.2,1.8,0.7s0.7,1.1,0.7,2v8.8h-1.4v-8.7c0-1-0.5-1.5-1.5-1.5c-0.6,0-1.3,0.2-2,0.5v9.6h-1.4V12.7h1.4V13.2z"></path>
		<path d="M90.3,21.2v-5.6c0-0.9,0.3-1.7,0.8-2.3c0.5-0.6,1.4-0.9,2.5-0.9c1.1,0,1.9,0.3,2.4,0.9s0.8,1.3,0.8,2.3v3.5h-5.1v2c0,0.6,0.2,1,0.6,1.3s1,0.4,1.7,0.4c0.8,0,1.6-0.1,2.4-0.4v1.3c-0.7,0.2-1.5,0.3-2.4,0.3C91.6,24.2,90.3,23.2,90.3,21.2z M91.7,17.9h3.7v-2.3c0-1.3-0.6-1.9-1.9-1.9s-1.9,0.6-1.9,1.9V17.9z"></path>
		<path d="M103.9,12.6h0.5V14h-0.7c-0.5,0-0.9,0.1-1.3,0.4c-0.1,0.1-0.4,0.3-0.8,0.5v9.2h-1.4V12.7h1.4v0.9c0,0,0.1-0.1,0.3-0.2s0.3-0.2,0.3-0.2c0,0,0.1-0.1,0.3-0.2s0.2-0.1,0.3-0.2c0.1,0,0.2,0,0.3-0.1C103.3,12.7,103.6,12.6,103.9,12.6z"></path>
		<path d="M111.7,9.7h1.4v14.4h-1.4v-0.7c-0.6,0.5-1.4,0.7-2.2,0.7s-1.6-0.2-2.1-0.7s-0.7-1.2-0.7-2.1v-5.6c0-0.9,0.3-1.7,0.8-2.2c0.6-0.5,1.3-0.8,2.2-0.8h1.9V9.7z M111.7,14H110c-1.3,0-1.9,0.6-1.9,1.7v5.5c0,1.1,0.5,1.7,1.6,1.7c0.8,0,1.4-0.2,1.9-0.7V14z"></path>
		<path d="M121.5,12.7h1.4l-3.1,14.4h-1.4l0.6-3h-0.7l-2.5-11.4h1.4l1.2,5.7l0.9,4.7c0.3-1.6,0.6-3.2,0.9-4.7L121.5,12.7z"></path>
	</g>
	<circle style="fill:#FBBE00" class="logo-circle" cx="18" cy="18" r="18"></circle>
	<path style="fill:#fff" class="logo-curvefront" d="M21.6,5c-1.5,0-2.9,0.5-4.1,1.3l0,0l-7.1,4.7l0,0c1.1-0.8,2.5-1.2,4-1.2c0.1,0,0.3,0,0.4,0c3.8,0.2,6.8,3.3,6.8,7.2v12l7.2-4.8v-12C28.8,8.3,25.6,5,21.6,5z"></path>
	<path class="logo-curveback" d="M14.4,9.8c0.1,0,0.3,0,0.4,0c-0.3,0.7-0.4,1.6-0.4,2.4v12L7.2,29V17c0-2.5,1.3-4.7,3.2-6C11.5,10.3,12.9,9.8,14.4,9.8z"></path>
</svg>